<?xml version="1.0" encoding="UTF-8" standalone="no"?>
<svg
   xmlns:dc="http://purl.org/dc/elements/1.1/"
   xmlns:cc="http://creativecommons.org/ns#"
   xmlns:rdf="http://www.w3.org/1999/02/22-rdf-syntax-ns#"
   xmlns:svg="http://www.w3.org/2000/svg"
   xmlns="http://www.w3.org/2000/svg"
   xmlns:sodipodi="http://sodipodi.sourceforge.net/DTD/sodipodi-0.dtd"
   xmlns:inkscape="http://www.inkscape.org/namespaces/inkscape"
   width="82.549614mm"
   height="7.4083099mm"
   viewBox="0 0 82.549614 7.4083099"
   version="1.1"
   id="svg8"
   inkscape:version="1.0.2-2 (e86c870879, 2021-01-15)"
   sodipodi:docname="bullencoolen.svg">
  <defs
     id="defs2" />
  <sodipodi:namedview
     id="base"
     pagecolor="#ffffff"
     bordercolor="#666666"
     borderopacity="1.0"
     inkscape:pageopacity="0.0"
     inkscape:pageshadow="2"
     inkscape:zoom="1.4"
     inkscape:cx="163.15453"
     inkscape:cy="76.765206"
     inkscape:document-units="mm"
     inkscape:current-layer="layer1"
     inkscape:document-rotation="0"
     showgrid="false"
     inkscape:window-width="1920"
     inkscape:window-height="1017"
     inkscape:window-x="-8"
     inkscape:window-y="-8"
     inkscape:window-maximized="1"
     fit-margin-top="0"
     fit-margin-left="0"
     fit-margin-right="0"
     fit-margin-bottom="0" />
  <metadata
     id="metadata5">
    <rdf:RDF>
      <cc:Work
         rdf:about="">
        <dc:format>image/svg+xml</dc:format>
        <dc:type
           rdf:resource="http://purl.org/dc/dcmitype/StillImage" />
        <dc:title></dc:title>
      </cc:Work>
    </rdf:RDF>
  </metadata>
  <g
     inkscape:label="Layer 1"
     inkscape:groupmode="layer"
     id="layer1"
     transform="translate(-95.415215,-85.066948)">
    <g
       aria-label="Bullencoolen."
       id="text835"
       style="font-style:normal;font-weight:normal;font-size:10.5833px;line-height:1.25;font-family:sans-serif;fill:#000000;fill-opacity:1;stroke:none;stroke-width:0.264583">
      <path
         id="path864"
         style="font-style:normal;font-variant:normal;font-weight:normal;font-stretch:normal;font-family:Arcadepix;-inkscape-font-specification:Arcadepix;stroke-width:0.264583"
         d="m 175.84818,92.475258 v -2.11666 h 2.11665 v 2.11666 z m -7.4083,0 v -6.34998 h 5.30223 v 1.047747 h 1.04775 v 5.302233 h -2.14841 v -5.249317 h -1.00541 v 1.047747 h -1.04775 v 4.20157 z m -5.25989,-5.249317 v 2.05316 h 2.05316 v -2.05316 z m -1.10067,5.249317 v -1.047747 h -1.04774 v -4.254486 h 1.04774 v -1.047747 h 4.25449 v 1.047747 h 1.04775 v 3.20674 h -4.20157 v 0.99483 h 3.15382 v 1.100663 z m -4.24389,0 v -6.307647 h -1.03717 v -1.100663 h 3.17499 v 7.40831 z m -6.29706,-1.100663 h 2.05317 v -4.148654 h -2.05317 z m -1.10066,1.100663 v -1.047747 h -1.04774 v -4.254486 h 1.04774 v -1.047747 h 4.25449 v 1.047747 h 1.04774 v 4.254486 h -1.04774 v 1.047747 z m -6.30763,-1.100663 h 2.05316 v -4.148654 h -2.05316 z m -1.10067,1.100663 v -1.047747 h -1.04774 v -4.254486 h 1.04774 v -1.047747 h 4.25449 v 1.047747 h 1.04775 v 4.254486 h -1.04775 v 1.047747 z m -7.40829,0 v -1.047747 h -1.04775 v -4.254486 h 1.04775 v -1.047747 h 4.25449 v 1.047747 h 1.04774 v 1.100663 h -2.14841 v -1.047747 h -2.05316 v 4.148654 h 2.05316 v -1.047747 h 2.14841 v 1.100663 h -1.04774 v 1.047747 z m -8.45605,0 v -6.34998 h 5.30224 v 1.047747 h 1.04774 v 5.302233 h -2.14841 v -5.249317 h -1.00541 v 1.047747 h -1.04775 v 4.20157 z m -5.25989,-5.249317 v 2.05316 h 2.05316 v -2.05316 z m -1.10066,5.249317 v -1.047747 h -1.04775 v -4.254486 h 1.04775 v -1.047747 h 4.25449 v 1.047747 h 1.04774 v 3.20674 h -4.20157 v 0.99483 h 3.15383 v 1.100663 z m -4.2439,0 v -6.307647 h -1.03716 v -1.100663 h 3.17499 v 7.40831 z m -4.23331,0 v -6.307647 h -1.03717 v -1.100663 h 3.17499 v 7.40831 z m -7.39772,0 v -1.047747 h -1.04774 v -5.302233 h 2.14841 v 5.249317 h 1.00541 v -1.047747 h 1.04775 v -4.20157 h 2.14841 v 6.34998 z m -7.355382,-6.307647 v 2.05316 h 3.090322 v -2.05316 z m 4.201572,5.2599 v 1.047747 h -6.360565 v -7.40831 h 6.360565 v 1.047747 h 1.04774 v 2.158993 h -2.10607 v 0.99483 h 2.10607 v 2.158993 z m -4.201572,-0.05292 h 3.090322 v -2.05316 h -3.090322 z" />
    </g>
  </g>
</svg>
