<?xml version="1.0" encoding="UTF-8" standalone="no"?>
<svg
   xmlns:dc="http://purl.org/dc/elements/1.1/"
   xmlns:cc="http://creativecommons.org/ns#"
   xmlns:rdf="http://www.w3.org/1999/02/22-rdf-syntax-ns#"
   xmlns:svg="http://www.w3.org/2000/svg"
   xmlns="http://www.w3.org/2000/svg"
   xmlns:sodipodi="http://sodipodi.sourceforge.net/DTD/sodipodi-0.dtd"
   xmlns:inkscape="http://www.inkscape.org/namespaces/inkscape"
   width="75.141327mm"
   height="8.4666386mm"
   viewBox="0 0 75.141327 8.4666386"
   version="1.1"
   id="svg2711"
   inkscape:version="1.0.2-2 (e86c870879, 2021-01-15)"
   sodipodi:docname="fuckcovid.svg">
  <defs
     id="defs2705" />
  <sodipodi:namedview
     id="base"
     pagecolor="#ffffff"
     bordercolor="#666666"
     borderopacity="1.0"
     inkscape:pageopacity="0.0"
     inkscape:pageshadow="2"
     inkscape:zoom="2.8"
     inkscape:cx="175.85301"
     inkscape:cy="-9.794091"
     inkscape:document-units="mm"
     inkscape:current-layer="layer1"
     inkscape:document-rotation="0"
     showgrid="false"
     fit-margin-top="0"
     fit-margin-left="0"
     fit-margin-right="0"
     fit-margin-bottom="0"
     inkscape:window-width="1920"
     inkscape:window-height="1017"
     inkscape:window-x="-8"
     inkscape:window-y="-8"
     inkscape:window-maximized="1" />
  <metadata
     id="metadata2708">
    <rdf:RDF>
      <cc:Work
         rdf:about="">
        <dc:format>image/svg+xml</dc:format>
        <dc:type
           rdf:resource="http://purl.org/dc/dcmitype/StillImage" />
        <dc:title></dc:title>
      </cc:Work>
    </rdf:RDF>
  </metadata>
  <g
     inkscape:label="Layer 1"
     inkscape:groupmode="layer"
     id="layer1"
     transform="translate(189.74405,-52.765504)">
    <g
       aria-label="Fuck Covid."
       id="text3276"
       style="font-style:normal;font-weight:normal;font-size:10.5833px;line-height:1.25;font-family:sans-serif;fill:#000000;fill-opacity:1;stroke:none;stroke-width:0.264583">
      <path
         id="path3296"
         style="font-style:normal;font-variant:normal;font-weight:normal;font-stretch:normal;font-family:Arcadepix;-inkscape-font-specification:Arcadepix;stroke-width:0.264583"
         d="m -116.71938,61.232143 v -2.11666 h 2.11666 v 2.11666 z m -5.2599,-1.100663 h 2.05316 v -4.148653 h -2.05316 z m -1.10066,1.100663 v -1.047746 h -1.04775 V 55.92991 h 1.04775 v -1.05833 h 3.15382 v -1.047746 h 2.14841 v 7.408309 z m -4.2439,-7.365976 v -1.100663 h 2.13783 v 1.100663 z m 0,7.365976 v -5.2599 H -128.361 V 54.87158 h 3.17499 v 6.360563 z m -6.34997,0 v -1.047746 h -1.04774 V 59.13665 h -1.04775 v -4.254486 h 2.14841 v 4.20157 h 2.05316 v -4.20157 h 2.14841 v 4.254486 h -1.04775 v 1.047747 h -1.04774 v 1.047746 z m -7.35538,-1.100663 h 2.05316 v -4.148653 h -2.05316 z m -1.10066,1.100663 v -1.047746 h -1.04775 V 55.92991 h 1.04775 v -1.047746 h 4.25449 v 1.047746 h 1.04774 v 4.254487 h -1.04774 v 1.047746 z m -8.46663,-1.047746 v -1.05833 h -1.04775 V 55.92991 h 1.04775 v -1.05833 h 1.05833 v -1.047746 h 4.25449 v 1.047746 h 1.04774 v 1.111247 h -2.15899 v -1.05833 h -2.04258 v 1.05833 h -1.04774 v 3.090323 h 1.04774 v 1.05833 h 2.04258 v -1.05833 h 2.15899 v 1.111247 h -1.04774 v 1.047746 h -4.25449 v -1.047746 z m -15.86434,1.047746 v -7.408309 h 2.14841 v 4.20157 h 1.00541 v -1.047747 h 1.04775 V 54.87158 h 2.14841 v 2.158993 h -1.04775 v 1.047747 h -1.04775 v 0.99483 h 1.04775 v 1.05833 h 1.04775 v 1.100663 h -2.14841 v -1.047746 h -1.04775 v -1.05833 h -1.00541 v 2.106076 z m -6.36055,0 v -1.047746 h -1.04775 V 55.92991 h 1.04775 v -1.047746 h 4.25448 v 1.047746 h 1.04775 v 1.100663 h -2.14841 v -1.047746 h -2.05316 v 4.148653 h 2.05316 v -1.047746 h 2.14841 v 1.100663 h -1.04775 v 1.047746 z m -7.4083,0 v -1.047746 h -1.04775 v -5.302233 h 2.14841 v 5.249316 h 1.00542 v -1.047746 h 1.04774 v -4.20157 h 2.14841 v 6.349979 z m -9.51438,0 v -7.408309 h 7.40831 v 1.100663 h -5.24932 v 2.05316 h 4.20157 v 1.100663 h -4.20157 v 3.153823 z" />
    </g>
  </g>
</svg>
