<?xml version="1.0" encoding="UTF-8" standalone="no"?>
<!-- Created with Inkscape (http://www.inkscape.org/) -->

<svg
   xmlns:dc="http://purl.org/dc/elements/1.1/"
   xmlns:cc="http://creativecommons.org/ns#"
   xmlns:rdf="http://www.w3.org/1999/02/22-rdf-syntax-ns#"
   xmlns:svg="http://www.w3.org/2000/svg"
   xmlns="http://www.w3.org/2000/svg"
   xmlns:sodipodi="http://sodipodi.sourceforge.net/DTD/sodipodi-0.dtd"
   xmlns:inkscape="http://www.inkscape.org/namespaces/inkscape"
   width="110.00602mm"
   height="14.11111mm"
   viewBox="0 0 110.00602 14.11111"
   version="1.1"
   id="svg8"
   sodipodi:docname="covid.svg"
   inkscape:version="0.92.2 (5c3e80d, 2017-08-06)">
  <defs
     id="defs2" />
  <sodipodi:namedview
     id="base"
     pagecolor="#ffffff"
     bordercolor="#666666"
     borderopacity="1.0"
     inkscape:pageopacity="0.0"
     inkscape:pageshadow="2"
     inkscape:zoom="0.98994949"
     inkscape:cx="367.3602"
     inkscape:cy="60.671215"
     inkscape:document-units="mm"
     inkscape:current-layer="layer1"
     showgrid="false"
     inkscape:window-width="1920"
     inkscape:window-height="1017"
     inkscape:window-x="-8"
     inkscape:window-y="-8"
     inkscape:window-maximized="1"
     fit-margin-top="0"
     fit-margin-left="0"
     fit-margin-right="0"
     fit-margin-bottom="0" />
  <metadata
     id="metadata5">
    <rdf:RDF>
      <cc:Work
         rdf:about="">
        <dc:format>image/svg+xml</dc:format>
        <dc:type
           rdf:resource="http://purl.org/dc/dcmitype/StillImage" />
        <dc:title></dc:title>
      </cc:Work>
    </rdf:RDF>
  </metadata>
  <g
     inkscape:label="Layer 1"
     inkscape:groupmode="layer"
     id="layer1"
     transform="translate(289.52975,-19.615872)">
    <g
       aria-label="Funny Covid."
       style="font-style:normal;font-variant:normal;font-weight:normal;font-stretch:normal;font-size:14.11111069px;line-height:1.25;font-family:Carlito;-inkscape-font-specification:Carlito;letter-spacing:0px;word-spacing:0px;fill:#000000;fill-opacity:1;stroke:none;stroke-width:0.26458332"
       id="text4749">
      <path
         id="path9308"
         style="font-style:normal;font-variant:normal;font-weight:normal;font-stretch:normal;font-family:Arcadepix;-inkscape-font-specification:Arcadepix;stroke-width:0.26458332"
         d="m -182.34595,30.90476 v -2.822222 h 2.82222 v 2.822222 z m -7.00219,-1.467555 h 2.73755 v -5.531556 h -2.73755 z m -1.46756,1.467555 v -1.397 h -1.397 v -5.672666 h 1.397 v -1.411111 h 4.20511 v -1.397 h 2.86456 v 9.877777 z m -5.66407,-9.821333 v -1.467555 h 2.85045 v 1.467555 z m 0,9.821333 v -7.013222 h -1.38289 v -1.467555 h 4.23334 v 8.480777 z m -8.45564,0 v -1.397 h -1.397 v -1.397 h -1.397 v -5.672666 h 2.86456 v 5.602111 h 2.73755 v -5.602111 h 2.86456 v 5.672666 h -1.397 v 1.397 h -1.397 v 1.397 z m -9.7962,-1.467555 h 2.73756 v -5.531556 h -2.73756 z m -1.46755,1.467555 v -1.397 h -1.397 v -5.672666 h 1.397 v -1.397 h 5.67267 v 1.397 h 1.397 v 5.672666 h -1.397 v 1.397 z m -11.29991,-1.397 v -1.411111 h -1.397 v -4.261555 h 1.397 v -1.411111 h 1.41111 v -1.397 h 5.67267 v 1.397 h 1.397 v 1.481666 h -2.87867 v -1.411111 h -2.72345 v 1.411111 h -1.397 v 4.120445 h 1.397 v 1.411111 h 2.72345 v -1.411111 h 2.87867 v 1.481666 h -1.397 v 1.397 h -5.67267 v -1.397 z m -19.73351,4.219222 v -1.467555 h 4.20511 v -1.340556 h -4.20511 v -1.396999 h -1.397 v -7.083778 h 2.86455 v 7.013222 h 2.73756 v -7.013222 h 2.86455 v 9.891889 h -1.39699 v 1.396999 z m -11.26375,-2.822222 v -8.466666 h 7.06966 v 1.397 h 1.397 v 7.069666 h -2.86455 v -6.999111 h -1.34056 v 1.397 h -1.397 v 5.602111 z m -9.86676,0 v -8.466666 h 7.06967 v 1.397 h 1.397 v 7.069666 h -2.86456 v -6.999111 h -1.34055 v 1.397 h -1.397 v 5.602111 z m -8.46975,0 v -1.397 h -1.397 v -7.069666 h 2.86455 v 6.999111 h 1.34056 v -1.397 h 1.397 v -5.602111 h 2.86455 v 8.466666 z m -12.69691,0 v -9.877777 h 9.87777 v 1.467555 h -6.99911 v 2.737556 h 5.60211 v 1.467555 h -5.60211 v 4.205111 z"
         inkscape:connector-curvature="0" />
    </g>
  </g>
</svg>
