<?xml version="1.0" encoding="UTF-8" standalone="no"?>
<svg
   xmlns:dc="http://purl.org/dc/elements/1.1/"
   xmlns:cc="http://creativecommons.org/ns#"
   xmlns:rdf="http://www.w3.org/1999/02/22-rdf-syntax-ns#"
   xmlns:svg="http://www.w3.org/2000/svg"
   xmlns="http://www.w3.org/2000/svg"
   xmlns:sodipodi="http://sodipodi.sourceforge.net/DTD/sodipodi-0.dtd"
   xmlns:inkscape="http://www.inkscape.org/namespaces/inkscape"
   width="109.00782mm"
   height="23.179911mm"
   viewBox="0 0 109.00782 23.179911"
   version="1.1"
   id="svg1473"
   inkscape:version="1.0.2-2 (e86c870879, 2021-01-15)"
   sodipodi:docname="happynewyear.svg">
  <defs
     id="defs1467" />
  <sodipodi:namedview
     id="base"
     pagecolor="#ffffff"
     bordercolor="#666666"
     borderopacity="1.0"
     inkscape:pageopacity="0.0"
     inkscape:pageshadow="2"
     inkscape:zoom="1.979899"
     inkscape:cx="215.83829"
     inkscape:cy="74.11713"
     inkscape:document-units="mm"
     inkscape:current-layer="layer1"
     inkscape:document-rotation="0"
     showgrid="false"
     inkscape:window-width="1920"
     inkscape:window-height="1017"
     inkscape:window-x="-8"
     inkscape:window-y="-8"
     inkscape:window-maximized="1"
     fit-margin-top="0"
     fit-margin-left="0"
     fit-margin-right="0"
     fit-margin-bottom="0" />
  <metadata
     id="metadata1470">
    <rdf:RDF>
      <cc:Work
         rdf:about="">
        <dc:format>image/svg+xml</dc:format>
        <dc:type
           rdf:resource="http://purl.org/dc/dcmitype/StillImage" />
        <dc:title></dc:title>
      </cc:Work>
    </rdf:RDF>
  </metadata>
  <g
     inkscape:label="Layer 1"
     inkscape:groupmode="layer"
     id="layer1"
     transform="translate(208.35935,-146.42801)">
    <g
       aria-label="Team210 2021.
Happy new year!"
       id="text2038"
       style="font-style:normal;font-weight:normal;font-size:10.5833px;line-height:1.25;font-family:sans-serif;fill:#000000;fill-opacity:1;stroke:none;stroke-width:0.264583">
      <path
         id="path2106"
         style="font-style:normal;font-variant:normal;font-weight:normal;font-stretch:normal;font-family:Arcadepix;-inkscape-font-specification:Arcadepix;text-align:center;text-anchor:middle;stroke-width:0.264583"
         d="m -102.52652,164.33743 v -4.25448 h 3.174988 v 3.20674 h -1.037168 v 1.04774 z m 0,3.15383 v -2.159 h 2.13782 v 2.159 z m -7.4083,0 v -6.34998 h 6.34998 v 1.10066 h -3.15382 v 1.04775 h -1.04775 v 4.20157 z m -5.25989,-3.15383 v 2.05316 h 2.05316 v -2.05316 z m -2.14841,2.10608 v -2.14841 h 1.04775 v -1.05833 h 3.15382 v -0.99483 h -3.15382 v -1.10066 h 4.25448 v 1.04774 h 1.04775 v 4.25449 h -1.04775 v 1.04775 h -4.25448 v -1.04775 z m -5.25988,-4.20157 v 2.05316 h 2.05316 v -2.05316 z m -1.10067,5.24932 v -1.04775 h -1.04774 v -4.25449 h 1.04774 v -1.04774 h 4.25449 v 1.04774 h 1.04775 v 3.20674 h -4.20157 v 0.99483 h 3.15382 v 1.10067 z m -7.40829,2.11666 v -1.10067 h 3.15382 v -1.00541 h -3.15382 v -1.04775 h -1.04775 v -5.31281 h 2.14841 v 5.2599 h 2.05316 v -5.2599 h 2.14841 v 7.41889 h -1.04774 v 1.04775 z m -15.87493,-2.11666 v -2.0955 h -1.04775 v -4.25448 h 2.15899 v 2.09549 h 0.99483 v -1.04775 h 1.10067 v 1.04775 h 0.99483 v -2.09549 h 2.15899 v 4.25448 h -1.04775 v 2.0955 h -2.15899 v -1.04775 h -0.99483 v 1.04775 z m -6.30764,-5.24932 v 2.05316 h 2.05316 v -2.05316 z m -1.10066,5.24932 v -1.04775 h -1.04775 v -4.25449 h 1.04775 v -1.04774 h 4.25449 v 1.04774 h 1.04774 v 3.20674 h -4.20157 v 0.99483 h 3.15383 v 1.10067 z m -8.45605,0 v -6.34998 h 5.30224 v 1.04774 h 1.04774 v 5.30224 h -2.14841 v -5.24932 h -1.00541 v 1.04775 h -1.04775 v 4.20157 z m -13.76884,2.11666 v -1.10067 h 3.15382 v -1.00541 h -3.15382 v -1.04775 h -1.04775 v -5.31281 h 2.14841 v 5.2599 h 2.05316 v -5.2599 h 2.14841 v 7.41889 h -1.04775 v 1.04775 z m -6.30764,-7.36598 v 4.15924 h 2.05316 v -4.15924 z m -2.14841,7.36598 v -8.46664 h 5.30224 v 1.04774 h 1.04774 v 4.26507 h -1.04774 v 1.04775 h -3.15383 v 2.10608 z m -5.25988,-7.36598 v 4.15924 h 2.05316 v -4.15924 z m -2.14841,7.36598 v -8.46664 h 5.30223 v 1.04774 h 1.04775 v 4.26507 h -1.04775 v 1.04775 h -3.15382 v 2.10608 z m -5.25989,-5.27049 v 2.05316 h 2.05316 v -2.05316 z m -2.14841,2.10608 v -2.14841 h 1.04774 v -1.05833 h 3.15383 v -0.99483 h -3.15383 v -1.10066 h 4.25449 v 1.04774 h 1.04775 v 4.25449 h -1.04775 v 1.04775 h -4.25449 v -1.04775 z m -8.46663,1.04775 v -7.40831 h 2.15899 v 3.15382 h 3.09032 v -3.15382 h 2.159 v 7.40831 h -2.159 v -3.15383 h -3.09032 v 3.15383 z m 101.07037,-13.65494 v -2.11666 h 2.11666 v 2.11666 z m -7.4083,0 v -1.10066 h 2.09549 V 148.587 h -1.04774 v -1.11124 h 1.04774 v -1.04775 h 2.159 v 6.30765 h 2.09549 v 1.10066 z m -8.46663,-2.15899 h 1.04775 v -1.04775 h 1.05833 v -1.04775 h 2.09549 v -1.04774 h 1.04775 v -1.00542 h -3.09033 v 1.05833 h -2.15899 v -1.11124 h 1.04775 v -1.04775 h 5.31281 v 1.04775 h 1.04775 v 2.15899 h -1.04775 v 1.04775 h -1.05833 v 1.04774 h -2.09549 v 1.00542 h 4.20157 v 1.10066 h -7.40831 z m -6.30764,0 h 1.04774 v 1.05833 h 2.04258 V 148.587 h -1.04775 v -1.05833 h -2.04257 z m -1.11125,1.11124 v -1.05833 h -1.04775 v -3.19615 h 1.04775 v -1.05833 h 1.05833 v -1.04775 h 3.19616 v 1.04775 h 1.05833 v 1.05833 h 1.04774 v 3.19615 h -1.04774 v 1.05833 h -1.05833 v 1.04775 h -3.19616 v -1.04775 z m -9.51437,-1.11124 h 1.04774 v -1.04775 h 1.05833 v -1.04775 h 2.0955 v -1.04774 h 1.04774 v -1.00542 h -3.09032 v 1.05833 h -2.15899 v -1.11124 h 1.04774 v -1.04775 h 5.31282 v 1.04775 h 1.04775 v 2.15899 h -1.04775 v 1.04775 h -1.05833 v 1.04774 h -2.09549 v 1.00542 h 4.20157 v 1.10066 h -7.40831 z m -13.71594,0 h 1.04774 v 1.05833 h 2.04258 V 148.587 h -1.04775 v -1.05833 h -2.04257 z m -1.11125,1.11124 v -1.05833 h -1.04775 v -3.19615 h 1.04775 v -1.05833 h 1.05833 v -1.04775 h 3.19616 v 1.04775 h 1.05833 v 1.05833 h 1.04774 v 3.19615 h -1.04774 v 1.05833 h -1.05833 v 1.04775 h -3.19616 v -1.04775 z m -8.45604,1.04775 v -1.10066 h 2.09549 V 148.587 h -1.04774 v -1.11124 h 1.04774 v -1.04775 h 2.159 v 6.30765 h 2.09549 v 1.10066 z m -8.46663,-2.15899 h 1.04774 v -1.04775 h 1.05833 v -1.04775 h 2.0955 v -1.04774 h 1.04774 v -1.00542 h -3.09032 v 1.05833 h -2.15899 v -1.11124 h 1.04774 v -1.04775 h 5.31282 v 1.04775 h 1.04775 v 2.15899 h -1.04775 v 1.04775 h -1.05833 v 1.04774 h -2.09549 v 1.00542 h 4.20157 v 1.10066 h -7.40831 z m -8.46664,2.15899 v -6.34998 h 3.20674 v 1.04775 h 0.99483 v -1.04775 h 2.159 v 1.04775 h 1.04774 v 5.30223 h -2.15899 v -2.09549 h -0.99483 v 1.04774 h -1.10066 v -1.04774 h -0.99483 v 2.09549 z m -5.25988,-3.15382 v 2.05316 h 2.05316 v -2.05316 z m -2.14841,2.10607 v -2.14841 h 1.04774 v -1.05833 h 3.15383 V 148.587 h -3.15383 v -1.10066 h 4.25449 v 1.04775 h 1.04775 v 4.25448 h -1.04775 v 1.04775 h -4.25449 v -1.04775 z m -5.25989,-4.20157 v 2.05316 h 2.05316 V 148.587 Z m -1.10066,5.24932 v -1.04775 h -1.04775 v -4.25448 h 1.04775 v -1.04775 h 4.25448 v 1.04775 h 1.04775 v 3.20674 h -4.20157 v 0.99483 h 3.15382 v 1.10066 z m -6.36055,0 v -6.30765 h -2.0955 v -1.10066 h 6.34998 v 1.10066 h -2.09549 v 6.30765 z" />
    </g>
    <text
       xml:space="preserve"
       style="font-style:normal;font-weight:normal;font-size:10.5833px;line-height:1.25;font-family:sans-serif;fill:#000000;fill-opacity:1;stroke:none;stroke-width:0.264583"
       x="-108.77869"
       y="156.21902"
       id="text2052"><tspan
         sodipodi:role="line"
         id="tspan2050"
         x="-108.77869"
         y="156.21902"
         style="stroke-width:0.264583" /></text>
  </g>
</svg>
