<?xml version="1.0" encoding="UTF-8" standalone="no"?>
<svg
   xmlns:dc="http://purl.org/dc/elements/1.1/"
   xmlns:cc="http://creativecommons.org/ns#"
   xmlns:rdf="http://www.w3.org/1999/02/22-rdf-syntax-ns#"
   xmlns:svg="http://www.w3.org/2000/svg"
   xmlns="http://www.w3.org/2000/svg"
   xmlns:sodipodi="http://sodipodi.sourceforge.net/DTD/sodipodi-0.dtd"
   xmlns:inkscape="http://www.inkscape.org/namespaces/inkscape"
   width="138.64099mm"
   height="10.5833mm"
   viewBox="0 0 138.64099 10.5833"
   version="1.1"
   id="svg3306"
   inkscape:version="1.0.2-2 (e86c870879, 2021-01-15)"
   sodipodi:docname="hubschraubereintopf.svg">
  <defs
     id="defs3300" />
  <sodipodi:namedview
     id="base"
     pagecolor="#ffffff"
     bordercolor="#666666"
     borderopacity="1.0"
     inkscape:pageopacity="0.0"
     inkscape:pageshadow="2"
     inkscape:zoom="0.35"
     inkscape:cx="1294.2857"
     inkscape:cy="171.9999"
     inkscape:document-units="mm"
     inkscape:current-layer="layer1"
     inkscape:document-rotation="0"
     showgrid="false"
     fit-margin-top="0"
     fit-margin-left="0"
     fit-margin-right="0"
     fit-margin-bottom="0"
     inkscape:window-width="1920"
     inkscape:window-height="1017"
     inkscape:window-x="-8"
     inkscape:window-y="-8"
     inkscape:window-maximized="1" />
  <metadata
     id="metadata3303">
    <rdf:RDF>
      <cc:Work
         rdf:about="">
        <dc:format>image/svg+xml</dc:format>
        <dc:type
           rdf:resource="http://purl.org/dc/dcmitype/StillImage" />
        <dc:title></dc:title>
      </cc:Work>
    </rdf:RDF>
  </metadata>
  <g
     inkscape:label="Layer 1"
     inkscape:groupmode="layer"
     id="layer1"
     transform="translate(236.61308,-102.65836)">
    <g
       aria-label="Hubschraubereintopf."
       id="text3871"
       style="font-style:normal;font-weight:normal;font-size:10.5833px;line-height:1.25;font-family:sans-serif;fill:#000000;fill-opacity:1;stroke:none;stroke-width:0.264583">
      <path
         id="path3911"
         style="font-style:normal;font-variant:normal;font-weight:normal;font-stretch:normal;font-family:Arcadepix;-inkscape-font-specification:Arcadepix;stroke-width:0.264583"
         d="m -100.08875,111.125 v -2.11666 h 2.116665 v 2.11666 z m -5.30221,0 v -4.20157 h -1.04775 v -1.10066 h 1.04775 v -1.05833 h 1.04775 v -1.04775 h 3.19615 v 1.10066 h -2.09549 v 1.00542 h 1.04775 v 1.10066 h -1.04775 v 4.20157 z m -6.30764,-5.24932 v 4.15924 h 2.05316 v -4.15924 z m -2.14841,7.36598 v -8.46664 h 5.30224 v 1.04775 h 1.04774 v 4.26507 h -1.04774 v 1.04774 h -3.15383 v 2.10608 z m -5.25988,-3.21732 h 2.05316 v -4.14866 h -2.05316 z m -1.10067,1.10066 v -1.04775 h -1.04774 v -4.25448 h 1.04774 v -1.04775 h 4.25449 v 1.04775 h 1.04775 v 4.25448 h -1.04775 v 1.04775 z m -5.30222,0 v -1.04775 h -1.04774 v -4.20157 h -1.04775 v -1.11124 h 1.04775 v -1.04775 h 2.14841 v 1.04775 h 1.04774 v 1.11124 h -1.04774 v 4.14866 h 2.09549 v 1.10066 z m -9.50379,0 v -6.34998 h 5.30224 v 1.04775 h 1.04774 v 5.30223 h -2.14841 v -5.24932 h -1.00541 v 1.04775 h -1.04775 v 4.20157 z m -3.19615,-7.36598 v -1.10066 h 2.13783 v 1.10066 z m 0,7.36598 v -5.2599 h -1.03716 v -1.10066 h 3.17499 v 6.36056 z m -6.29705,-5.24932 v 2.05316 h 2.05316 v -2.05316 z m -1.10067,5.24932 v -1.04775 h -1.04774 v -4.25448 h 1.04774 v -1.04775 h 4.25449 v 1.04775 h 1.04775 v 3.20674 h -4.20157 v 0.99483 h 3.15382 v 1.10066 z m -8.45604,0 v -6.34998 h 6.34998 v 1.10066 h -3.15382 v 1.04775 h -1.04775 v 4.20157 z m -5.25988,-5.24932 v 2.05316 h 2.05316 v -2.05316 z m -1.10066,5.24932 v -1.04775 h -1.04775 v -4.25448 h 1.04775 v -1.04775 h 4.25448 v 1.04775 h 1.04775 v 3.20674 h -4.20157 v 0.99483 h 3.15382 v 1.10066 z m -3.15382,-1.04775 v 1.04775 h -5.30223 v -7.40831 h 2.14841 v 1.04775 h 3.15382 v 1.05833 h 1.04775 v 4.25448 z m -3.15382,-0.0529 h 2.05316 v -4.14866 h -2.05316 z m -8.50896,1.10065 v -1.04775 h -1.04775 v -5.30223 h 2.14841 v 5.24932 h 1.00542 v -1.04775 h 1.04774 v -4.20157 h 2.14841 v 6.34998 z m -6.30764,-3.15382 v 2.05316 h 2.05316 v -2.05316 z m -2.14841,2.10607 v -2.14841 h 1.04775 v -1.05833 h 3.15382 v -0.99483 h -3.15382 v -1.10066 h 4.25449 v 1.04775 h 1.04774 v 4.25448 h -1.04774 v 1.04775 h -4.25449 v -1.04775 z m -7.4083,1.04775 v -6.34998 h 6.34998 v 1.10066 h -3.15382 v 1.04775 h -1.04775 v 4.20157 z m -7.40829,0 v -7.40831 h 2.14841 v 1.04775 h 3.15382 v 1.05833 h 1.04775 v 5.30223 h -2.14841 v -5.24932 h -1.00541 v 1.04775 h -1.04775 v 4.20157 z m -6.36055,0 v -1.04775 h -1.04775 v -4.25448 h 1.04775 v -1.04775 h 4.25448 v 1.04775 h 1.04775 v 1.10066 h -2.14841 v -1.04775 h -2.05316 v 4.14866 h 2.05316 v -1.04775 h 2.14841 v 1.10066 h -1.04775 v 1.04775 z m -8.45605,-1.04775 v -1.10066 h 2.14841 v 1.04775 h 2.05316 v -2.05316 h -3.15382 v -1.04775 h -1.04775 v -1.10066 h 1.04775 v -1.04775 h 4.25449 v 1.10066 h -3.15383 v 0.99483 h 3.15383 v 1.05833 h 1.04774 v 2.14841 h -1.04774 v 1.04775 h -4.25449 v -1.04775 z m -2.10606,0 v 1.04775 h -5.30223 v -7.40831 h 2.14841 v 1.04775 h 3.15382 v 1.05833 h 1.04775 v 4.25448 z m -3.15382,-0.0529 h 2.05316 v -4.14866 h -2.05316 z m -8.50896,1.10065 v -1.04775 h -1.04775 v -5.30223 h 2.14841 v 5.24932 h 1.00541 v -1.04775 h 1.04775 v -4.20157 h 2.14841 v 6.34998 z m -9.51438,0 v -7.40831 h 2.15899 v 3.15382 h 3.09032 v -3.15382 h 2.159 v 7.40831 h -2.159 v -3.15382 h -3.09032 v 3.15382 z" />
    </g>
  </g>
</svg>
