<?xml version="1.0" encoding="UTF-8" standalone="no"?>
<svg
   xmlns:dc="http://purl.org/dc/elements/1.1/"
   xmlns:cc="http://creativecommons.org/ns#"
   xmlns:rdf="http://www.w3.org/1999/02/22-rdf-syntax-ns#"
   xmlns:svg="http://www.w3.org/2000/svg"
   xmlns="http://www.w3.org/2000/svg"
   xmlns:sodipodi="http://sodipodi.sourceforge.net/DTD/sodipodi-0.dtd"
   xmlns:inkscape="http://www.inkscape.org/namespaces/inkscape"
   width="61.383049mm"
   height="9.5249701mm"
   viewBox="0 0 61.383049 9.5249701"
   version="1.1"
   id="svg2116"
   inkscape:version="1.0.2-2 (e86c870879, 2021-01-15)"
   sodipodi:docname="orgelsaft.svg">
  <defs
     id="defs2110" />
  <sodipodi:namedview
     id="base"
     pagecolor="#ffffff"
     bordercolor="#666666"
     borderopacity="1.0"
     inkscape:pageopacity="0.0"
     inkscape:pageshadow="2"
     inkscape:zoom="1.4"
     inkscape:cx="241.46467"
     inkscape:cy="238.54114"
     inkscape:document-units="mm"
     inkscape:current-layer="layer1"
     inkscape:document-rotation="0"
     showgrid="false"
     fit-margin-top="0"
     fit-margin-left="0"
     fit-margin-right="0"
     fit-margin-bottom="0"
     inkscape:window-width="1920"
     inkscape:window-height="1017"
     inkscape:window-x="-8"
     inkscape:window-y="-8"
     inkscape:window-maximized="1" />
  <metadata
     id="metadata2113">
    <rdf:RDF>
      <cc:Work
         rdf:about="">
        <dc:format>image/svg+xml</dc:format>
        <dc:type
           rdf:resource="http://purl.org/dc/dcmitype/StillImage" />
        <dc:title></dc:title>
      </cc:Work>
    </rdf:RDF>
  </metadata>
  <g
     inkscape:label="Layer 1"
     inkscape:groupmode="layer"
     id="layer1"
     transform="translate(92.226196,-50.800022)">
    <g
       aria-label="Orgelsaft"
       id="text2683"
       style="font-style:normal;font-weight:normal;font-size:10.5833px;line-height:1.25;font-family:sans-serif;fill:#000000;fill-opacity:1;stroke:none;stroke-width:0.264583">
      <path
         id="path2701"
         style="font-style:normal;font-variant:normal;font-weight:normal;font-stretch:normal;font-family:Arcadepix;-inkscape-font-specification:Arcadepix;stroke-width:0.264583"
         d="m -34.039303,58.208332 v -1.047747 h -1.047746 v -4.20157 h -1.047747 v -1.111246 h 1.047747 v -1.047747 h 2.148409 v 1.047747 h 1.047747 v 1.111246 h -1.047747 v 4.148654 h 2.095494 v 1.100663 z m -7.397711,0 v -4.20157 h -1.047746 v -1.100663 h 1.047746 v -1.05833 h 1.047747 v -1.047747 h 3.196157 v 1.100663 h -2.095494 v 1.005414 h 1.047747 v 1.100663 h -1.047747 v 4.20157 z m -6.307635,-3.153823 v 2.05316 h 2.05316 v -2.05316 z m -2.14841,2.106076 v -2.148409 h 1.047747 v -1.05833 h 3.153823 v -0.994831 h -3.153823 v -1.100663 h 4.254486 v 1.047747 h 1.047747 v 4.254486 h -1.047747 v 1.047747 h -4.254486 v -1.047747 z m -7.408298,0 v -1.100663 h 2.14841 v 1.047747 h 2.05316 v -2.05316 h -3.153824 v -1.047747 h -1.047746 v -1.100663 h 1.047746 v -1.047747 h 4.254487 v 1.100663 h -3.153823 v 0.994831 h 3.153823 v 1.05833 h 1.047747 v 2.148409 h -1.047747 v 1.047747 h -4.254487 v -1.047747 z m -3.196151,1.047747 v -6.307647 h -1.037164 v -1.100663 h 3.17499 v 7.40831 z m -6.297052,-5.249317 v 2.053161 h 2.05316 v -2.053161 z m -1.100664,5.249317 v -1.047747 h -1.047746 v -4.254486 h 1.047746 v -1.047747 h 4.254487 v 1.047747 h 1.047747 v 3.20674 h -4.20157 v 0.99483 h 3.153823 v 1.100663 z m -6.307633,-1.09008 h 2.05316 v -4.159237 h -2.05316 z m -1.100663,3.20674 v -1.100663 h 3.153823 v -1.005414 h -3.153823 v -1.047746 h -1.047747 v -4.26507 h 1.047747 v -1.047747 h 5.302233 v 7.418893 h -1.047747 v 1.047747 z m -8.456044,-2.11666 v -6.34998 h 6.349979 v 1.100663 h -3.153823 v 1.047747 h -1.047747 v 4.20157 z m -6.307639,-1.100663 h 3.090323 v -5.206984 h -3.090323 z m -1.111247,1.100663 v -1.047747 h -1.047746 v -5.312816 h 1.047746 v -1.047747 h 5.312817 v 1.047747 h 1.047746 v 5.312816 h -1.047746 v 1.047747 z" />
    </g>
  </g>
</svg>
