<?xml version="1.0" encoding="UTF-8" standalone="no"?>
<svg
   xmlns:dc="http://purl.org/dc/elements/1.1/"
   xmlns:cc="http://creativecommons.org/ns#"
   xmlns:rdf="http://www.w3.org/1999/02/22-rdf-syntax-ns#"
   xmlns:svg="http://www.w3.org/2000/svg"
   xmlns="http://www.w3.org/2000/svg"
   xmlns:sodipodi="http://sodipodi.sourceforge.net/DTD/sodipodi-0.dtd"
   xmlns:inkscape="http://www.inkscape.org/namespaces/inkscape"
   width="78.316299mm"
   height="10.583299mm"
   viewBox="0 0 78.316299 10.583299"
   version="1.1"
   id="svg874"
   inkscape:version="1.0.2-2 (e86c870879, 2021-01-15)"
   sodipodi:docname="psycoholika.svg">
  <defs
     id="defs868" />
  <sodipodi:namedview
     id="base"
     pagecolor="#ffffff"
     bordercolor="#666666"
     borderopacity="1.0"
     inkscape:pageopacity="0.0"
     inkscape:pageshadow="2"
     inkscape:zoom="1.979899"
     inkscape:cx="143.86567"
     inkscape:cy="24.525833"
     inkscape:document-units="mm"
     inkscape:current-layer="layer1"
     inkscape:document-rotation="0"
     showgrid="false"
     inkscape:window-width="1920"
     inkscape:window-height="1017"
     inkscape:window-x="-8"
     inkscape:window-y="-8"
     inkscape:window-maximized="1"
     fit-margin-top="0"
     fit-margin-left="0"
     fit-margin-right="0"
     fit-margin-bottom="0" />
  <metadata
     id="metadata871">
    <rdf:RDF>
      <cc:Work
         rdf:about="">
        <dc:format>image/svg+xml</dc:format>
        <dc:type
           rdf:resource="http://purl.org/dc/dcmitype/StillImage" />
        <dc:title></dc:title>
      </cc:Work>
    </rdf:RDF>
  </metadata>
  <g
     inkscape:label="Layer 1"
     inkscape:groupmode="layer"
     id="layer1"
     transform="translate(342.57269,-92.360791)">
    <g
       aria-label="Psycoholika."
       id="text1439"
       style="font-style:normal;font-weight:normal;font-size:10.5833px;line-height:1.25;font-family:sans-serif;fill:#000000;fill-opacity:1;stroke:none;stroke-width:0.264583">
      <path
         id="path1463"
         style="font-style:normal;font-variant:normal;font-weight:normal;font-stretch:normal;font-family:Arcadepix;-inkscape-font-specification:Arcadepix;stroke-width:0.264583"
         d="m -266.37305,100.82743 v -2.116659 h 2.11666 v 2.116659 z m -5.25989,-3.153823 v 2.053161 h 2.05316 v -2.053161 z m -2.14841,2.106077 v -2.14841 h 1.04775 v -1.05833 h 3.15382 v -0.99483 h -3.15382 v -1.100663 h 4.25448 v 1.047747 h 1.04775 v 4.254486 h -1.04775 v 1.047746 h -4.25448 v -1.047746 z m -7.40829,1.047746 v -7.408309 h 2.14841 v 4.20157 h 1.00541 v -1.047747 h 1.04775 v -2.106076 h 2.14841 v 2.158993 h -1.04775 v 1.047746 h -1.04775 v 0.994831 h 1.04775 v 1.05833 h 1.04775 v 1.100662 h -2.14841 v -1.047746 h -1.04775 v -1.05833 h -1.00541 v 2.106076 z m -3.19616,-7.365976 v -1.100663 h 2.13783 v 1.100663 z m 0,7.365976 v -5.259899 h -1.03716 v -1.100663 h 3.17499 v 6.360562 z m -4.23331,0 v -6.307646 h -1.03717 v -1.100663 h 3.17499 v 7.408309 z m -6.29706,-1.100662 h 2.05316 v -4.148654 h -2.05316 z m -1.10066,1.100662 v -1.047746 h -1.04775 v -4.254486 h 1.04775 v -1.047747 h 4.25449 v 1.047747 h 1.04774 v 4.254486 h -1.04774 v 1.047746 z m -8.45604,0 v -7.408309 h 2.14841 v 1.047747 h 3.15382 v 1.05833 h 1.04775 v 5.302232 h -2.14841 v -5.249316 h -1.00541 v 1.047747 h -1.04775 v 4.201569 z m -5.25989,-1.100662 h 2.05316 v -4.148654 h -2.05316 z m -1.10066,1.100662 v -1.047746 h -1.04775 v -4.254486 h 1.04775 v -1.047747 h 4.25448 v 1.047747 h 1.04775 v 4.254486 h -1.04775 v 1.047746 z m -7.4083,0 v -1.047746 h -1.04775 v -4.254486 h 1.04775 v -1.047747 h 4.25449 v 1.047747 h 1.04774 v 1.100663 h -2.14841 v -1.047747 h -2.05316 v 4.148654 h 2.05316 v -1.047747 h 2.14841 v 1.100663 h -1.04774 v 1.047746 z m -7.4083,2.11666 v -1.10066 h 3.15383 v -1.00542 h -3.15383 v -1.047743 h -1.04774 v -5.312816 h 2.14841 v 5.2599 h 2.05316 v -5.2599 h 2.14841 v 7.418889 h -1.04775 v 1.04775 z m -8.45604,-3.164406 v -1.100663 h 2.14841 v 1.047747 h 2.05316 v -2.053161 h -3.15382 v -1.047746 h -1.04775 v -1.100663 h 1.04775 v -1.047747 h 4.25448 v 1.100663 h -3.15382 v 0.99483 h 3.15382 v 1.05833 h 1.04775 v 2.14841 h -1.04775 v 1.047746 h -4.25448 v -1.047746 z m -6.30764,-5.2599 v 3.100907 h 3.09032 v -3.100907 z m -2.15899,6.307646 v -7.408309 h 6.36056 v 1.047747 h 1.04775 v 3.206739 h -1.04775 v 1.047747 h -4.20157 v 2.106076 z" />
    </g>
  </g>
</svg>
