<?xml version="1.0" encoding="UTF-8" standalone="no"?>
<!-- Created with Inkscape (http://www.inkscape.org/) -->

<svg
   xmlns:dc="http://purl.org/dc/elements/1.1/"
   xmlns:cc="http://creativecommons.org/ns#"
   xmlns:rdf="http://www.w3.org/1999/02/22-rdf-syntax-ns#"
   xmlns:svg="http://www.w3.org/2000/svg"
   xmlns="http://www.w3.org/2000/svg"
   xmlns:sodipodi="http://sodipodi.sourceforge.net/DTD/sodipodi-0.dtd"
   xmlns:inkscape="http://www.inkscape.org/namespaces/inkscape"
   width="104.35607mm"
   height="14.11111mm"
   viewBox="0 0 104.35607 14.11111"
   version="1.1"
   id="svg4777"
   inkscape:version="0.92.2 (5c3e80d, 2017-08-06)"
   sodipodi:docname="psyconfetti.svg">
  <defs
     id="defs4771" />
  <sodipodi:namedview
     id="base"
     pagecolor="#ffffff"
     bordercolor="#666666"
     borderopacity="1.0"
     inkscape:pageopacity="0.0"
     inkscape:pageshadow="2"
     inkscape:zoom="0.35"
     inkscape:cx="621.42853"
     inkscape:cy="-246.47621"
     inkscape:document-units="mm"
     inkscape:current-layer="layer1"
     showgrid="false"
     fit-margin-top="0"
     fit-margin-left="0"
     fit-margin-right="0"
     fit-margin-bottom="0"
     inkscape:window-width="1920"
     inkscape:window-height="1017"
     inkscape:window-x="-8"
     inkscape:window-y="-8"
     inkscape:window-maximized="1" />
  <metadata
     id="metadata4774">
    <rdf:RDF>
      <cc:Work
         rdf:about="">
        <dc:format>image/svg+xml</dc:format>
        <dc:type
           rdf:resource="http://purl.org/dc/dcmitype/StillImage" />
        <dc:title></dc:title>
      </cc:Work>
    </rdf:RDF>
  </metadata>
  <g
     inkscape:label="Layer 1"
     inkscape:groupmode="layer"
     id="layer1"
     transform="translate(226.02975,-69.508727)">
    <g
       aria-label="Psyconfetti."
       style="font-style:normal;font-variant:normal;font-weight:normal;font-stretch:normal;font-size:14.11111069px;line-height:1.25;font-family:Carlito;-inkscape-font-specification:Carlito;letter-spacing:0px;word-spacing:0px;fill:#000000;fill-opacity:1;stroke:none;stroke-width:0.26458332"
       id="text9256">
      <path
         id="path9284"
         style="font-style:normal;font-variant:normal;font-weight:normal;font-stretch:normal;font-family:Arcadepix;-inkscape-font-specification:Arcadepix;stroke-width:0.26458332"
         d="m -124.4959,80.797615 v -2.822222 h 2.82222 v 2.822222 z m -4.26707,-9.821333 v -1.467555 h 2.85044 v 1.467555 z m 0,9.821333 v -7.013222 h -1.38289 v -1.467555 h 4.23333 v 8.480777 z m -7.05004,0 v -1.397 h -1.397 v -5.602111 h -1.397 v -1.481666 h 1.397 v -1.397 h 2.86456 v 1.397 h 1.397 v 1.481666 h -1.397 v 5.531556 h 2.794 v 1.467555 z m -8.46116,0 v -1.397 h -1.397 v -5.602111 h -1.397 v -1.481666 h 1.397 v -1.397 h 2.86456 v 1.397 h 1.397 v 1.481666 h -1.397 v 5.531556 h 2.794 v 1.467555 z m -9.7962,-6.999111 v 2.737556 h 2.73756 v -2.737556 z m -1.46755,6.999111 v -1.397 h -1.397 v -5.672666 h 1.397 v -1.397 h 5.67267 v 1.397 h 1.397 v 4.275666 h -5.60212 v 1.326445 h 4.20512 v 1.467555 z m -8.46115,0 v -5.602111 h -1.397 v -1.467555 h 1.397 v -1.411111 h 1.397 v -1.397 h 4.26155 v 1.467555 h -2.794 v 1.340556 h 1.397 v 1.467555 h -1.397 v 5.602111 z m -11.26376,0 v -8.466666 h 7.06967 v 1.397 h 1.397 v 7.069666 h -2.86456 v -6.999111 h -1.34055 v 1.397 h -1.397 v 5.602111 z m -7.0022,-1.467555 h 2.73756 v -5.531556 h -2.73756 z m -1.46755,1.467555 v -1.397 h -1.397 v -5.672666 h 1.397 v -1.397 h 5.67267 v 1.397 h 1.39699 v 5.672666 h -1.39699 v 1.397 z m -9.86675,0 v -1.397 h -1.397 v -5.672666 h 1.397 v -1.397 h 5.67266 v 1.397 h 1.397 v 1.467555 h -2.86455 v -1.397 h -2.73756 v 5.531556 h 2.73756 v -1.397 h 2.86455 v 1.467555 h -1.397 v 1.397 z m -9.86676,2.822222 v -1.467555 h 4.20511 v -1.340556 h -4.20511 v -1.397 h -1.397 v -7.083777 h 2.86456 v 7.013222 h 2.73755 v -7.013222 h 2.86456 v 9.891888 h -1.397 v 1.397 z m -11.26375,-4.219222 V 77.93306 h 2.86455 v 1.397 h 2.73756 v -2.737556 h -4.20511 v -1.397 h -1.397 v -1.467555 h 1.397 v -1.397 h 5.67266 v 1.467555 h -4.20511 v 1.326445 h 4.20511 v 1.411111 h 1.397 v 2.864555 h -1.397 v 1.397 h -5.67266 v -1.397 z m -8.42125,-7.013222 v 4.134556 h 4.12045 v -4.134556 z m -2.87866,8.410222 v -9.877777 h 8.48077 v 1.397 h 1.397 v 4.275666 h -1.397 v 1.397 h -5.60211 v 2.808111 z"
         inkscape:connector-curvature="0" />
    </g>
  </g>
</svg>
