<?xml version="1.0" encoding="UTF-8" standalone="no"?>
<svg
   xmlns:dc="http://purl.org/dc/elements/1.1/"
   xmlns:cc="http://creativecommons.org/ns#"
   xmlns:rdf="http://www.w3.org/1999/02/22-rdf-syntax-ns#"
   xmlns:svg="http://www.w3.org/2000/svg"
   xmlns="http://www.w3.org/2000/svg"
   xmlns:sodipodi="http://sodipodi.sourceforge.net/DTD/sodipodi-0.dtd"
   xmlns:inkscape="http://www.inkscape.org/namespaces/inkscape"
   width="57.14975mm"
   height="7.408309mm"
   viewBox="0 0 57.14975 7.408309"
   version="1.1"
   id="svg4516"
   inkscape:version="1.0.2-2 (e86c870879, 2021-01-15)"
   sodipodi:docname="team210.svg">
  <defs
     id="defs4510" />
  <sodipodi:namedview
     id="base"
     pagecolor="#ffffff"
     bordercolor="#666666"
     borderopacity="1.0"
     inkscape:pageopacity="0.0"
     inkscape:pageshadow="2"
     inkscape:zoom="1.979899"
     inkscape:cx="146.09598"
     inkscape:cy="55.851521"
     inkscape:document-units="mm"
     inkscape:current-layer="layer1"
     inkscape:document-rotation="0"
     showgrid="false"
     fit-margin-top="0"
     fit-margin-left="0"
     fit-margin-right="0"
     fit-margin-bottom="0"
     inkscape:window-width="1920"
     inkscape:window-height="1017"
     inkscape:window-x="-8"
     inkscape:window-y="-8"
     inkscape:window-maximized="1" />
  <metadata
     id="metadata4513">
    <rdf:RDF>
      <cc:Work
         rdf:about="">
        <dc:format>image/svg+xml</dc:format>
        <dc:type
           rdf:resource="http://purl.org/dc/dcmitype/StillImage" />
        <dc:title></dc:title>
      </cc:Work>
    </rdf:RDF>
  </metadata>
  <g
     inkscape:label="Layer 1"
     inkscape:groupmode="layer"
     id="layer1"
     transform="translate(-51.404751,-65.163117)">
    <g
       aria-label="Team210."
       id="text5081"
       style="font-style:normal;font-weight:normal;font-size:10.5833px;line-height:1.25;font-family:sans-serif;fill:#000000;fill-opacity:1;stroke:none;stroke-width:0.264583">
      <path
         id="path5097"
         style="font-style:normal;font-variant:normal;font-weight:normal;font-stretch:normal;font-family:Arcadepix;-inkscape-font-specification:Arcadepix;stroke-width:0.264583"
         d="m 106.43784,72.571426 v -2.11666 h 2.11666 v 2.11666 z m -6.30764,-2.158993 h 1.04774 v 1.05833 h 2.04258 V 67.32211 h -1.04775 v -1.05833 h -2.04257 z m -1.11125,1.111247 v -1.05833 h -1.047747 v -3.196157 h 1.047747 v -1.05833 h 1.05833 v -1.047746 h 3.19616 v 1.047746 h 1.05833 v 1.05833 h 1.04774 v 3.196157 h -1.04774 v 1.05833 h -1.05833 v 1.047746 h -3.19616 V 71.52368 Z m -8.456042,1.047746 v -1.100663 h 2.095494 V 67.32211 h -1.047747 v -1.111247 h 1.047747 v -1.047746 h 2.158993 v 6.307646 h 2.095493 v 1.100663 z m -8.466633,-2.158993 h 1.047747 v -1.047746 h 1.05833 V 68.31694 h 2.095493 v -1.047747 h 1.047747 V 66.26378 h -3.090324 v 1.05833 h -2.158993 v -1.111247 h 1.047747 v -1.047746 h 5.312816 v 1.047746 h 1.047747 v 2.158993 h -1.047747 v 1.047747 h -1.05833 v 1.047747 h -2.095493 v 1.005413 h 4.20157 v 1.100663 h -7.40831 z m -8.466633,2.158993 v -6.349979 h 3.20674 v 1.047746 h 0.99483 v -1.047746 h 2.158994 v 1.047746 h 1.047746 v 5.302233 h -2.158993 v -2.095493 h -0.99483 v 1.047747 h -1.100663 v -1.047747 h -0.99483 v 2.095493 z m -5.259886,-3.153823 v 2.05316 h 2.05316 v -2.05316 z m -2.14841,2.106077 v -2.14841 h 1.047747 v -1.05833 h 3.153823 v -0.99483 h -3.153823 v -1.100663 h 4.254486 v 1.047746 h 1.047747 v 4.254487 h -1.047747 v 1.047746 H 67.269093 V 71.52368 Z m -5.259888,-4.20157 v 2.05316 h 2.05316 v -2.05316 z m -1.100663,5.249316 V 71.52368 h -1.047747 v -4.254487 h 1.047747 v -1.047746 h 4.254486 v 1.047746 h 1.047747 v 3.20674 h -4.20157 v 0.99483 h 3.153823 v 1.100663 z m -6.360551,0 V 66.26378 h -2.095493 v -1.100663 h 6.34998 v 1.100663 h -2.095494 v 6.307646 z" />
    </g>
  </g>
</svg>
